<svg xmlns="http://www.w3.org/2000/svg" xml:space="preserve" viewBox="0 0 100 30"><path d="M97.5 3.13v23.73h-5.94V12.17l-9.62 10.97-9.62-10.97v14.69h-5.88V3.13h.33c2.68 0 4.99.82 6.05 2l9.12 10.14 9.2-10.17c1.07-1.16 3.36-1.97 6.01-1.97zm-34.23 0h-.04c-2.97 0-5.53.81-6.72 1.98l-9.31 14.1L37.88 5.1c-1.19-1.16-3.75-1.97-6.72-1.97h-1.91l15.86 23.73h4.17L65.2 3.13zM22.14 5.08v12.56c0 1.18 0 2.8-1.69 3.85-1.24.74-3.21.92-5.46.92-1.8 0-3.77-.09-5.01-.88-1.46-.92-1.52-2.23-1.52-3.46V5.06C7.41 3.93 5.14 3.14 2.5 3.13v15.43c0 1.92.4 4.24 2.59 5.99 2.65 2.1 6.92 2.32 10.02 2.32 3.43 0 7.43-.35 9.96-2.05 2.65-1.75 2.99-3.98 2.99-6.26V3.13c-2.63.02-4.88.82-5.92 1.95" style="fill:#b92c32"/></svg>